<?xml version="1.0" standalone="no"?>
<!DOCTYPE svg PUBLIC "-//W3C//DTD SVG 20010904//EN"
 "http://www.w3.org/TR/2001/REC-SVG-20010904/DTD/svg10.dtd">
<svg version="1.0" xmlns="http://www.w3.org/2000/svg"
 width="90.000000pt" height="90.000000pt" viewBox="0 0 90.000000 90.000000"
 preserveAspectRatio="xMidYMid meet">
<metadata>
Created by potrace 1.11, written by Peter Selinger 2001-2013
</metadata>
<g transform="translate(0.000000,90.000000) scale(0.100000,-0.100000)"
fill="#000000" stroke="none">
<path d="M205 886 c-97 -43 -125 -172 -74 -341 12 -38 25 -75 30 -82 6 -6 7
-33 4 -60 -5 -38 0 -69 24 -145 16 -54 28 -107 26 -119 -4 -18 -2 -20 8 -10 8
8 11 45 9 121 -1 62 2 111 7 115 6 3 9 -11 7 -36 -3 -33 4 -57 32 -108 19 -36
34 -78 33 -94 -2 -31 -1 -31 33 -15 29 12 42 43 28 61 -5 7 -12 21 -16 32 -5
14 1 11 17 -9 25 -30 25 -57 2 -76 -7 -6 -11 -20 -8 -31 5 -17 13 -20 62 -17
48 3 56 6 59 24 l3 22 39 -22 c22 -11 40 -24 40 -28 0 -10 -67 -21 -86 -14
-14 5 -15 4 -5 -8 13 -16 54 -26 131 -32 115 -9 185 61 185 181 -1 168 -89
355 -244 517 -55 56 -73 70 -90 65 -12 -3 -35 -2 -51 3 -42 12 -95 -6 -120
-40 -11 -16 -31 -32 -43 -36 -12 -3 -34 -18 -49 -31 l-27 -26 5 52 c9 100 47
156 119 176 l30 8 -25 7 c-38 12 -62 11 -95 -4z m263 -140 c17 -10 118 -150
131 -180 11 -26 7 -24 -41 19 -72 65 -132 102 -178 110 -28 5 -37 10 -33 21
13 33 86 52 121 30z m-222 -161 c-1 -71 -7 -92 -19 -61 -9 23 5 136 17 136 2
0 3 -34 2 -75z m122 -31 c-3 -3 -2 -21 2 -40 4 -19 4 -34 -1 -34 -5 0 -9 4 -9
9 0 5 -3 23 -6 40 -5 22 -3 31 6 31 8 0 11 -2 8 -6z m2 -94 c0 -5 -2 -10 -4
-10 -3 0 -8 5 -11 10 -3 6 -1 10 4 10 6 0 11 -4 11 -10z m218 -205 c-7 -7 -79
56 -73 65 2 4 21 -8 41 -27 20 -19 34 -36 32 -38z m-91 30 c0 -8 -7 -15 -15
-15 -12 0 -12 3 -2 15 7 8 13 15 15 15 1 0 2 -7 2 -15z m79 -90 c-4 -61 -16
-70 -16 -13 0 38 5 58 16 58 1 0 1 -20 0 -45z m124 -33 c-3 -21 -12 -46 -19
-57 -11 -17 -12 -18 -7 -2 3 11 9 31 12 45 13 63 25 74 14 14z"/>
</g>
</svg>
