<svg width="16" height="14" viewBox="0 0 16 14" fill="none" xmlns="http://www.w3.org/2000/svg">
<path fill-rule="evenodd" clip-rule="evenodd" d="M7.70679 13.6947C7.51926 13.8822 7.26495 13.9875 6.99979 13.9875C6.73462 13.9875 6.48031 13.8822 6.29279 13.6947L0.292786 7.69471C0.105315 7.50718 0 7.25288 0 6.98771C0 6.72255 0.105315 6.46824 0.292786 6.28071L6.29279 0.280712C6.48139 0.0985537 6.73399 -0.00224062 6.99619 3.78026e-05C7.25838 0.00231622 7.5092 0.107485 7.6946 0.292893C7.88001 0.478301 7.98518 0.729114 7.98746 0.99131C7.98974 1.25351 7.88894 1.50611 7.70679 1.69471L3.41379 5.98771H14.9998C15.265 5.98771 15.5194 6.09307 15.7069 6.28061C15.8944 6.46814 15.9998 6.7225 15.9998 6.98771C15.9998 7.25293 15.8944 7.50728 15.7069 7.69482C15.5194 7.88235 15.265 7.98771 14.9998 7.98771H3.41379L7.70679 12.2807C7.89426 12.4682 7.99957 12.7225 7.99957 12.9877C7.99957 13.2529 7.89426 13.5072 7.70679 13.6947V13.6947Z" fill="#718096"/>
</svg>
