<svg width="6" height="10" viewBox="0 0 6 10" fill="none" xmlns="http://www.w3.org/2000/svg">
<path fill-rule="evenodd" clip-rule="evenodd" d="M0.292787 9.70097C0.105316 9.51344 0 9.25913 0 8.99397C0 8.7288 0.105316 8.4745 0.292787 8.28697L3.58579 4.99397L0.292787 1.70097C0.110629 1.51237 0.00983372 1.25976 0.0121121 0.997567C0.0143906 0.73537 0.11956 0.484558 0.304968 0.29915C0.490376 0.113742 0.741189 0.00857233 1.00339 0.00629391C1.26558 0.00401549 1.51818 0.10481 1.70679 0.286968L5.70679 4.28697C5.89426 4.4745 5.99957 4.7288 5.99957 4.99397C5.99957 5.25913 5.89426 5.51344 5.70679 5.70097L1.70679 9.70097C1.51926 9.88844 1.26495 9.99375 0.999786 9.99375C0.734622 9.99375 0.480314 9.88844 0.292787 9.70097Z" fill="#F2F4F5"/>
</svg>
