<svg width="16" height="14" viewBox="0 0 16 14" fill="none" xmlns="http://www.w3.org/2000/svg">
<path fill-rule="evenodd" clip-rule="evenodd" d="M0 2C0 1.46957 0.210714 0.960859 0.585786 0.585786C0.960859 0.210714 1.46957 0 2 0H10C10.5304 0 11.0391 0.210714 11.4142 0.585786C11.7893 0.960859 12 1.46957 12 2V12C12 12.5304 12.2107 13.0391 12.5858 13.4142C12.9609 13.7893 13.4696 14 14 14H2C1.46957 14 0.960859 13.7893 0.585786 13.4142C0.210714 13.0391 0 12.5304 0 12V2ZM3 3H9V7H3V3ZM9 9H3V11H9V9Z" fill="#718096"/>
<path d="M13 4H14C14.5304 4 15.0391 4.21071 15.4142 4.58579C15.7893 4.96086 16 5.46957 16 6V11.5C16 11.8978 15.842 12.2794 15.5607 12.5607C15.2794 12.842 14.8978 13 14.5 13C14.1022 13 13.7206 12.842 13.4393 12.5607C13.158 12.2794 13 11.8978 13 11.5V4Z" fill="#718096"/>
</svg>
