<svg width="16" height="16" viewBox="0 0 16 16" fill="none" xmlns="http://www.w3.org/2000/svg">
<path d="M8.69471 0.292786C8.50718 0.105315 8.25288 0 7.98771 0C7.72255 0 7.46824 0.105315 7.28071 0.292786L0.280712 7.29279C0.0985537 7.48139 -0.00224062 7.73399 3.78026e-05 7.99619C0.00231622 8.25838 0.107485 8.5092 0.292893 8.6946C0.478301 8.88001 0.729114 8.98518 0.99131 8.98746C1.25351 8.98974 1.50611 8.88894 1.69471 8.70679L1.98771 8.41379V14.9998C1.98771 15.265 2.09307 15.5194 2.28061 15.7069C2.46814 15.8944 2.7225 15.9998 2.98771 15.9998H4.98771C5.25293 15.9998 5.50728 15.8944 5.69482 15.7069C5.88235 15.5194 5.98771 15.265 5.98771 14.9998V12.9998C5.98771 12.7346 6.09307 12.4802 6.28061 12.2927C6.46814 12.1051 6.7225 11.9998 6.98771 11.9998H8.98771C9.25293 11.9998 9.50728 12.1051 9.69482 12.2927C9.88235 12.4802 9.98771 12.7346 9.98771 12.9998V14.9998C9.98771 15.265 10.0931 15.5194 10.2806 15.7069C10.4681 15.8944 10.7225 15.9998 10.9877 15.9998H12.9877C13.2529 15.9998 13.5073 15.8944 13.6948 15.7069C13.8824 15.5194 13.9877 15.265 13.9877 14.9998V8.41379L14.2807 8.70679C14.4693 8.88894 14.7219 8.98974 14.9841 8.98746C15.2463 8.98518 15.4971 8.88001 15.6825 8.6946C15.8679 8.5092 15.9731 8.25838 15.9754 7.99619C15.9777 7.73399 15.8769 7.48139 15.6947 7.29279L8.69471 0.292786V0.292786Z" fill="#718096"/>
</svg>
